<svg xmlns="http://www.w3.org/2000/svg" xmlns:xlink="http://www.w3.org/1999/xlink" width="500" zoomAndPan="magnify" viewBox="0 0 375 374.999991" height="500" preserveAspectRatio="xMidYMid meet" version="1.0"><defs><g/></defs><g fill="#413f3d" fill-opacity="1"><g transform="translate(112.699135, 181.499988)"><g><path d="M 5.109375 0.21875 C 3.585938 0.21875 2.414062 -0.242188 1.59375 -1.171875 C 0.78125 -2.097656 0.375 -3.410156 0.375 -5.109375 C 0.375 -6.191406 0.570312 -7.125 0.96875 -7.90625 C 1.363281 -8.695312 1.9375 -9.296875 2.6875 -9.703125 C 3.4375 -10.117188 4.328125 -10.328125 5.359375 -10.328125 C 6.523438 -10.328125 7.726562 -10.066406 8.96875 -9.546875 C 8.875 -8.640625 8.726562 -7.644531 8.53125 -6.5625 L 7.390625 -6.484375 L 6.359375 -8 C 5.921875 -8.125 5.4375 -8.1875 4.90625 -8.1875 C 4.507812 -8.1875 4.128906 -8.148438 3.765625 -8.078125 C 3.609375 -7.773438 3.476562 -7.367188 3.375 -6.859375 C 3.269531 -6.347656 3.21875 -5.832031 3.21875 -5.3125 C 3.21875 -4.195312 3.421875 -3.375 3.828125 -2.84375 C 4.234375 -2.3125 4.878906 -2.035156 5.765625 -2.015625 C 6.109375 -2.015625 6.546875 -2.066406 7.078125 -2.171875 C 7.617188 -2.273438 8.144531 -2.410156 8.65625 -2.578125 L 9.125 -0.9375 C 8.601562 -0.59375 7.972656 -0.3125 7.234375 -0.09375 C 6.503906 0.113281 5.796875 0.21875 5.109375 0.21875 Z M 5.109375 0.21875 "/></g></g></g><g fill="#413f3d" fill-opacity="1"><g transform="translate(122.344123, 181.499988)"><g><path d="M 0.234375 -1.328125 L 0.703125 -1.625 L 4.21875 -10.125 L 6.765625 -10.34375 L 9.765625 -2.25 C 9.867188 -1.988281 9.9375 -1.816406 9.96875 -1.734375 C 10.007812 -1.660156 10.085938 -1.550781 10.203125 -1.40625 L 10.46875 -1.0625 L 10.375 0 L 6.171875 0 L 6.015625 -1.421875 L 7.078125 -1.6875 L 6.59375 -3.203125 L 3.5625 -3.171875 L 3.21875 -2.21875 C 3.195312 -2.125 3.1875 -2.050781 3.1875 -2 C 3.1875 -1.925781 3.195312 -1.867188 3.21875 -1.828125 C 3.238281 -1.796875 3.28125 -1.769531 3.34375 -1.75 L 4.375 -1.3125 L 4.234375 0 L 0.296875 0 Z M 5.140625 -7.78125 L 4.15625 -4.90625 L 6.09375 -4.8125 Z M 5.140625 -7.78125 "/></g></g></g><g fill="#413f3d" fill-opacity="1"><g transform="translate(133.024115, 181.499988)"><g><path d="M 0.5625 -1.53125 L 1.65625 -1.828125 L 1.65625 -7.546875 C 1.65625 -7.804688 1.632812 -7.976562 1.59375 -8.0625 C 1.550781 -8.144531 1.445312 -8.222656 1.28125 -8.296875 L 0.5 -8.734375 L 0.578125 -9.9375 C 1.335938 -10.0625 2.054688 -10.148438 2.734375 -10.203125 C 3.421875 -10.265625 4.15625 -10.296875 4.9375 -10.296875 C 6.019531 -10.296875 6.882812 -10.175781 7.53125 -9.9375 C 8.1875 -9.707031 8.664062 -9.347656 8.96875 -8.859375 C 9.28125 -8.367188 9.4375 -7.722656 9.4375 -6.921875 C 9.4375 -5.867188 9.054688 -5.039062 8.296875 -4.4375 C 7.546875 -3.84375 6.515625 -3.546875 5.203125 -3.546875 L 4.375 -3.5625 L 4.375 -2.4375 C 4.375 -2.1875 4.390625 -2.023438 4.421875 -1.953125 C 4.460938 -1.890625 4.550781 -1.820312 4.6875 -1.75 L 5.609375 -1.21875 L 5.546875 0 L 0.625 0 Z M 5.34375 -5.203125 C 5.882812 -5.203125 6.28125 -5.257812 6.53125 -5.375 C 6.632812 -5.863281 6.6875 -6.378906 6.6875 -6.921875 C 6.6875 -7.503906 6.570312 -7.921875 6.34375 -8.171875 C 6.125 -8.421875 5.765625 -8.546875 5.265625 -8.546875 C 5.097656 -8.546875 4.800781 -8.523438 4.375 -8.484375 L 4.375 -5.296875 C 4.644531 -5.234375 4.96875 -5.203125 5.34375 -5.203125 Z M 5.34375 -5.203125 "/></g></g></g><g fill="#413f3d" fill-opacity="1"><g transform="translate(142.729105, 181.499988)"><g><path d="M 3.765625 0.1875 C 2.660156 0.1875 1.546875 0.015625 0.421875 -0.328125 C 0.472656 -1.316406 0.550781 -2.238281 0.65625 -3.09375 L 1.8125 -3.3125 L 2.5625 -2.046875 C 3.164062 -1.828125 3.695312 -1.71875 4.15625 -1.71875 C 4.3125 -1.71875 4.648438 -1.765625 5.171875 -1.859375 C 5.191406 -2.054688 5.203125 -2.191406 5.203125 -2.265625 C 5.203125 -2.503906 5.160156 -2.6875 5.078125 -2.8125 C 5.003906 -2.9375 4.832031 -3.078125 4.5625 -3.234375 C 4.289062 -3.390625 3.804688 -3.625 3.109375 -3.9375 C 2.242188 -4.351562 1.617188 -4.800781 1.234375 -5.28125 C 0.859375 -5.769531 0.671875 -6.34375 0.671875 -7 C 0.671875 -8.03125 1.019531 -8.835938 1.71875 -9.421875 C 2.425781 -10.003906 3.390625 -10.296875 4.609375 -10.296875 C 5.191406 -10.296875 5.773438 -10.234375 6.359375 -10.109375 C 6.953125 -9.992188 7.46875 -9.835938 7.90625 -9.640625 C 7.882812 -9.085938 7.835938 -8.394531 7.765625 -7.5625 L 7.71875 -6.921875 L 6.625 -6.75 L 5.484375 -8.203125 C 5.128906 -8.316406 4.679688 -8.375 4.140625 -8.375 C 3.796875 -8.375 3.539062 -8.34375 3.375 -8.28125 C 3.320312 -8.082031 3.296875 -7.925781 3.296875 -7.8125 C 3.296875 -7.59375 3.347656 -7.398438 3.453125 -7.234375 C 3.566406 -7.066406 3.765625 -6.894531 4.046875 -6.71875 C 4.328125 -6.550781 4.742188 -6.335938 5.296875 -6.078125 C 6.097656 -5.691406 6.703125 -5.351562 7.109375 -5.0625 C 7.515625 -4.78125 7.800781 -4.476562 7.96875 -4.15625 C 8.132812 -3.84375 8.21875 -3.460938 8.21875 -3.015625 C 8.21875 -2.023438 7.820312 -1.242188 7.03125 -0.671875 C 6.238281 -0.0976562 5.148438 0.1875 3.765625 0.1875 Z M 3.765625 0.1875 "/></g></g></g><g fill="#413f3d" fill-opacity="1"><g transform="translate(151.294091, 181.499988)"><g><path d="M 2.578125 -1.46875 L 3.890625 -1.828125 L 3.890625 -8.328125 L 2.625 -8.21875 L 1.515625 -6.890625 L 0.421875 -6.96875 C 0.421875 -7.800781 0.460938 -8.847656 0.546875 -10.109375 L 9.9375 -10.109375 C 10.007812 -8.847656 10.046875 -7.800781 10.046875 -6.96875 L 8.96875 -6.890625 L 7.84375 -8.21875 L 6.609375 -8.328125 L 6.609375 -2.4375 C 6.609375 -2.1875 6.625 -2.023438 6.65625 -1.953125 C 6.6875 -1.890625 6.773438 -1.820312 6.921875 -1.75 L 7.84375 -1.203125 L 7.78125 0 L 2.65625 0 Z M 2.578125 -1.46875 "/></g></g></g><g fill="#413f3d" fill-opacity="1"><g transform="translate(161.779076, 181.499988)"><g><path d="M 5.3125 0.203125 C 3.644531 0.203125 2.40625 -0.210938 1.59375 -1.046875 C 0.78125 -1.890625 0.375 -3.164062 0.375 -4.875 C 0.375 -5.988281 0.578125 -6.953125 0.984375 -7.765625 C 1.398438 -8.578125 1.988281 -9.203125 2.75 -9.640625 C 3.507812 -10.085938 4.410156 -10.3125 5.453125 -10.3125 C 8.796875 -10.3125 10.46875 -8.601562 10.46875 -5.1875 C 10.46875 -4.070312 10.257812 -3.109375 9.84375 -2.296875 C 9.4375 -1.484375 8.847656 -0.863281 8.078125 -0.4375 C 7.304688 -0.0078125 6.382812 0.203125 5.3125 0.203125 Z M 5.625 -1.859375 C 6.195312 -1.859375 6.742188 -2.003906 7.265625 -2.296875 C 7.367188 -2.609375 7.453125 -2.992188 7.515625 -3.453125 C 7.578125 -3.921875 7.609375 -4.378906 7.609375 -4.828125 C 7.609375 -5.941406 7.398438 -6.78125 6.984375 -7.34375 C 6.566406 -7.914062 5.957031 -8.203125 5.15625 -8.203125 C 4.59375 -8.203125 4.046875 -8.097656 3.515625 -7.890625 C 3.398438 -7.703125 3.3125 -7.390625 3.25 -6.953125 C 3.195312 -6.515625 3.171875 -6.015625 3.171875 -5.453125 C 3.171875 -4.296875 3.378906 -3.40625 3.796875 -2.78125 C 4.210938 -2.164062 4.820312 -1.859375 5.625 -1.859375 Z M 5.625 -1.859375 "/></g></g></g><g fill="#413f3d" fill-opacity="1"><g transform="translate(172.609066, 181.499988)"><g><path d="M 3.078125 -6.390625 L 3.328125 -2.453125 C 3.335938 -2.222656 3.363281 -2.070312 3.40625 -2 C 3.445312 -1.9375 3.535156 -1.863281 3.671875 -1.78125 L 4.453125 -1.265625 L 4.390625 0 L 0.5 0 L 0.421875 -1.640625 L 1.234375 -1.828125 L 1.296875 -7.734375 C 1.296875 -7.929688 1.28125 -8.0625 1.25 -8.125 C 1.21875 -8.195312 1.144531 -8.28125 1.03125 -8.375 L 0.484375 -8.796875 L 0.578125 -10.109375 L 3.6875 -10.109375 L 8.21875 -4.3125 L 8.015625 -7.65625 C 8.003906 -7.894531 7.976562 -8.046875 7.9375 -8.109375 C 7.894531 -8.179688 7.804688 -8.257812 7.671875 -8.34375 L 6.890625 -8.84375 L 6.9375 -10.109375 L 10.796875 -10.109375 L 10.859375 -8.578125 L 10.09375 -8.25 L 10.03125 -0.140625 L 8.3125 0.4375 Z M 3.078125 -6.390625 "/></g></g></g><g fill="#413f3d" fill-opacity="1"><g transform="translate(183.829059, 181.499988)"><g><path d="M 0.40625 -1.53125 L 1.5 -1.828125 L 1.5 -7.578125 C 1.5 -7.835938 1.476562 -8.007812 1.4375 -8.09375 C 1.394531 -8.175781 1.289062 -8.253906 1.125 -8.328125 L 0.375 -8.765625 L 0.421875 -10.109375 L 8.5625 -10.109375 C 8.632812 -9.054688 8.671875 -8.03125 8.671875 -7.03125 L 7.5625 -6.953125 L 6.5 -8.28125 L 4.234375 -8.34375 L 4.234375 -5.890625 L 7.421875 -6.171875 L 7.421875 -3.859375 L 4.234375 -4.203125 L 4.234375 -1.78125 L 6.71875 -1.828125 L 7.875 -3.15625 L 8.984375 -3.078125 C 8.941406 -2.023438 8.867188 -1 8.765625 0 L 0.484375 0 Z M 0.40625 -1.53125 "/></g></g></g><g fill="#413f3d" fill-opacity="1"><g transform="translate(193.174052, 181.499988)"><g/></g></g><g fill="#413f3d" fill-opacity="1"><g transform="translate(196.264048, 181.499988)"><g><path d="M 0.5625 -1.53125 L 1.65625 -1.828125 L 1.65625 -7.546875 C 1.65625 -7.804688 1.632812 -7.976562 1.59375 -8.0625 C 1.550781 -8.144531 1.445312 -8.222656 1.28125 -8.296875 L 0.5 -8.734375 L 0.578125 -9.9375 C 1.335938 -10.0625 2.054688 -10.148438 2.734375 -10.203125 C 3.421875 -10.265625 4.15625 -10.296875 4.9375 -10.296875 C 6.019531 -10.296875 6.882812 -10.175781 7.53125 -9.9375 C 8.1875 -9.707031 8.664062 -9.347656 8.96875 -8.859375 C 9.28125 -8.367188 9.4375 -7.722656 9.4375 -6.921875 C 9.4375 -5.867188 9.054688 -5.039062 8.296875 -4.4375 C 7.546875 -3.84375 6.515625 -3.546875 5.203125 -3.546875 L 4.375 -3.5625 L 4.375 -2.4375 C 4.375 -2.1875 4.390625 -2.023438 4.421875 -1.953125 C 4.460938 -1.890625 4.550781 -1.820312 4.6875 -1.75 L 5.609375 -1.21875 L 5.546875 0 L 0.625 0 Z M 5.34375 -5.203125 C 5.882812 -5.203125 6.28125 -5.257812 6.53125 -5.375 C 6.632812 -5.863281 6.6875 -6.378906 6.6875 -6.921875 C 6.6875 -7.503906 6.570312 -7.921875 6.34375 -8.171875 C 6.125 -8.421875 5.765625 -8.546875 5.265625 -8.546875 C 5.097656 -8.546875 4.800781 -8.523438 4.375 -8.484375 L 4.375 -5.296875 C 4.644531 -5.234375 4.96875 -5.203125 5.34375 -5.203125 Z M 5.34375 -5.203125 "/></g></g></g><g fill="#413f3d" fill-opacity="1"><g transform="translate(205.969038, 181.499988)"><g><path d="M 0.5625 -1.53125 L 1.65625 -1.828125 L 1.65625 -7.546875 C 1.65625 -7.804688 1.632812 -7.976562 1.59375 -8.0625 C 1.550781 -8.144531 1.445312 -8.222656 1.28125 -8.296875 L 0.5 -8.734375 L 0.578125 -9.953125 C 2.078125 -10.179688 3.523438 -10.296875 4.921875 -10.296875 C 6.003906 -10.296875 6.875 -10.1875 7.53125 -9.96875 C 8.1875 -9.75 8.664062 -9.410156 8.96875 -8.953125 C 9.28125 -8.503906 9.4375 -7.90625 9.4375 -7.15625 C 9.4375 -6.53125 9.273438 -5.984375 8.953125 -5.515625 C 8.628906 -5.054688 8.175781 -4.703125 7.59375 -4.453125 L 9.984375 -0.578125 L 9.96875 0 L 7.25 0 L 5.03125 -4 L 4.359375 -4.015625 L 4.359375 -2.34375 C 4.359375 -2.101562 4.375 -1.945312 4.40625 -1.875 C 4.445312 -1.8125 4.539062 -1.742188 4.6875 -1.671875 L 5.328125 -1.296875 L 5.265625 0 L 0.625 0 Z M 5.328125 -5.703125 C 5.859375 -5.703125 6.25 -5.75 6.5 -5.84375 C 6.59375 -6.207031 6.640625 -6.640625 6.640625 -7.140625 C 6.640625 -7.640625 6.53125 -7.992188 6.3125 -8.203125 C 6.101562 -8.410156 5.75 -8.515625 5.25 -8.515625 C 4.96875 -8.515625 4.679688 -8.5 4.390625 -8.46875 L 4.390625 -5.796875 C 4.648438 -5.734375 4.960938 -5.703125 5.328125 -5.703125 Z M 5.328125 -5.703125 "/></g></g></g><g fill="#413f3d" fill-opacity="1"><g transform="translate(216.079022, 181.499988)"><g><path d="M 5.3125 0.203125 C 3.644531 0.203125 2.40625 -0.210938 1.59375 -1.046875 C 0.78125 -1.890625 0.375 -3.164062 0.375 -4.875 C 0.375 -5.988281 0.578125 -6.953125 0.984375 -7.765625 C 1.398438 -8.578125 1.988281 -9.203125 2.75 -9.640625 C 3.507812 -10.085938 4.410156 -10.3125 5.453125 -10.3125 C 8.796875 -10.3125 10.46875 -8.601562 10.46875 -5.1875 C 10.46875 -4.070312 10.257812 -3.109375 9.84375 -2.296875 C 9.4375 -1.484375 8.847656 -0.863281 8.078125 -0.4375 C 7.304688 -0.0078125 6.382812 0.203125 5.3125 0.203125 Z M 5.625 -1.859375 C 6.195312 -1.859375 6.742188 -2.003906 7.265625 -2.296875 C 7.367188 -2.609375 7.453125 -2.992188 7.515625 -3.453125 C 7.578125 -3.921875 7.609375 -4.378906 7.609375 -4.828125 C 7.609375 -5.941406 7.398438 -6.78125 6.984375 -7.34375 C 6.566406 -7.914062 5.957031 -8.203125 5.15625 -8.203125 C 4.59375 -8.203125 4.046875 -8.097656 3.515625 -7.890625 C 3.398438 -7.703125 3.3125 -7.390625 3.25 -6.953125 C 3.195312 -6.515625 3.171875 -6.015625 3.171875 -5.453125 C 3.171875 -4.296875 3.378906 -3.40625 3.796875 -2.78125 C 4.210938 -2.164062 4.820312 -1.859375 5.625 -1.859375 Z M 5.625 -1.859375 "/></g></g></g><g fill="#413f3d" fill-opacity="1"><g transform="translate(226.909012, 181.499988)"><g><path d="M 2.59375 1.8125 C 2.019531 1.5 1.585938 1.238281 1.296875 1.03125 C 1.015625 0.820312 0.679688 0.515625 0.296875 0.109375 L 1.515625 -1.359375 L 1.515625 -7.578125 C 1.515625 -7.835938 1.492188 -8.007812 1.453125 -8.09375 C 1.410156 -8.175781 1.304688 -8.253906 1.140625 -8.328125 L 0.375 -8.78125 L 0.4375 -10.109375 L 5.25 -10.109375 L 5.328125 -8.578125 L 4.234375 -8.28125 L 4.234375 -3.484375 C 4.234375 -2.421875 4.144531 -1.550781 3.96875 -0.875 C 3.800781 -0.195312 3.5 0.476562 3.0625 1.15625 Z M 2.59375 1.8125 "/></g></g></g><g fill="#413f3d" fill-opacity="1"><g transform="translate(232.57901, 181.499988)"><g><path d="M 0.40625 -1.53125 L 1.5 -1.828125 L 1.5 -7.578125 C 1.5 -7.835938 1.476562 -8.007812 1.4375 -8.09375 C 1.394531 -8.175781 1.289062 -8.253906 1.125 -8.328125 L 0.375 -8.765625 L 0.421875 -10.109375 L 8.5625 -10.109375 C 8.632812 -9.054688 8.671875 -8.03125 8.671875 -7.03125 L 7.5625 -6.953125 L 6.5 -8.28125 L 4.234375 -8.34375 L 4.234375 -5.890625 L 7.421875 -6.171875 L 7.421875 -3.859375 L 4.234375 -4.203125 L 4.234375 -1.78125 L 6.71875 -1.828125 L 7.875 -3.15625 L 8.984375 -3.078125 C 8.941406 -2.023438 8.867188 -1 8.765625 0 L 0.484375 0 Z M 0.40625 -1.53125 "/></g></g></g><g fill="#413f3d" fill-opacity="1"><g transform="translate(241.924003, 181.499988)"><g><path d="M 5.109375 0.21875 C 3.585938 0.21875 2.414062 -0.242188 1.59375 -1.171875 C 0.78125 -2.097656 0.375 -3.410156 0.375 -5.109375 C 0.375 -6.191406 0.570312 -7.125 0.96875 -7.90625 C 1.363281 -8.695312 1.9375 -9.296875 2.6875 -9.703125 C 3.4375 -10.117188 4.328125 -10.328125 5.359375 -10.328125 C 6.523438 -10.328125 7.726562 -10.066406 8.96875 -9.546875 C 8.875 -8.640625 8.726562 -7.644531 8.53125 -6.5625 L 7.390625 -6.484375 L 6.359375 -8 C 5.921875 -8.125 5.4375 -8.1875 4.90625 -8.1875 C 4.507812 -8.1875 4.128906 -8.148438 3.765625 -8.078125 C 3.609375 -7.773438 3.476562 -7.367188 3.375 -6.859375 C 3.269531 -6.347656 3.21875 -5.832031 3.21875 -5.3125 C 3.21875 -4.195312 3.421875 -3.375 3.828125 -2.84375 C 4.234375 -2.3125 4.878906 -2.035156 5.765625 -2.015625 C 6.109375 -2.015625 6.546875 -2.066406 7.078125 -2.171875 C 7.617188 -2.273438 8.144531 -2.410156 8.65625 -2.578125 L 9.125 -0.9375 C 8.601562 -0.59375 7.972656 -0.3125 7.234375 -0.09375 C 6.503906 0.113281 5.796875 0.21875 5.109375 0.21875 Z M 5.109375 0.21875 "/></g></g></g><g fill="#413f3d" fill-opacity="1"><g transform="translate(251.568991, 181.499988)"><g><path d="M 2.578125 -1.46875 L 3.890625 -1.828125 L 3.890625 -8.328125 L 2.625 -8.21875 L 1.515625 -6.890625 L 0.421875 -6.96875 C 0.421875 -7.800781 0.460938 -8.847656 0.546875 -10.109375 L 9.9375 -10.109375 C 10.007812 -8.847656 10.046875 -7.800781 10.046875 -6.96875 L 8.96875 -6.890625 L 7.84375 -8.21875 L 6.609375 -8.328125 L 6.609375 -2.4375 C 6.609375 -2.1875 6.625 -2.023438 6.65625 -1.953125 C 6.6875 -1.890625 6.773438 -1.820312 6.921875 -1.75 L 7.84375 -1.203125 L 7.78125 0 L 2.65625 0 Z M 2.578125 -1.46875 "/></g></g></g><g fill="#413f3d" fill-opacity="1"><g transform="translate(262.042875, 181.499988)"><g/></g></g><g fill="#413f3d" fill-opacity="1"><g transform="translate(131.660071, 202.499987)"><g><path d="M 3.421875 -6.625 L 3.09375 -2.1875 L 3.09375 -2.125 C 3.09375 -1.9375 3.160156 -1.8125 3.296875 -1.75 L 4.234375 -1.359375 L 4.078125 0 L 0.34375 0 L 0.1875 -1.328125 L 0.890625 -1.75 L 1.734375 -7.546875 C 1.742188 -7.617188 1.75 -7.703125 1.75 -7.796875 C 1.75 -7.921875 1.722656 -8.007812 1.671875 -8.0625 C 1.617188 -8.125 1.515625 -8.203125 1.359375 -8.296875 L 0.671875 -8.6875 L 0.765625 -10.109375 L 5.0625 -10.109375 L 7.21875 -3.125 L 9.34375 -10.109375 L 13.359375 -10.109375 L 13.421875 -8.53125 L 12.46875 -8.296875 L 13.28125 -2.421875 C 13.300781 -2.210938 13.335938 -2.050781 13.390625 -1.9375 C 13.453125 -1.832031 13.582031 -1.65625 13.78125 -1.40625 L 14.09375 -1 L 14.015625 0 L 9.546875 0 L 9.40625 -1.375 L 10.640625 -1.6875 L 10.125 -6.71875 L 8.203125 0.0625 L 5.640625 0.28125 Z M 3.421875 -6.625 "/></g></g></g><g fill="#413f3d" fill-opacity="1"><g transform="translate(145.940054, 202.499987)"><g><path d="M 0.234375 -1.328125 L 0.703125 -1.625 L 4.21875 -10.125 L 6.765625 -10.34375 L 9.765625 -2.25 C 9.867188 -1.988281 9.9375 -1.816406 9.96875 -1.734375 C 10.007812 -1.660156 10.085938 -1.550781 10.203125 -1.40625 L 10.46875 -1.0625 L 10.375 0 L 6.171875 0 L 6.015625 -1.421875 L 7.078125 -1.6875 L 6.59375 -3.203125 L 3.5625 -3.171875 L 3.21875 -2.21875 C 3.195312 -2.125 3.1875 -2.050781 3.1875 -2 C 3.1875 -1.925781 3.195312 -1.867188 3.21875 -1.828125 C 3.238281 -1.796875 3.28125 -1.769531 3.34375 -1.75 L 4.375 -1.3125 L 4.234375 0 L 0.296875 0 Z M 5.140625 -7.78125 L 4.15625 -4.90625 L 6.09375 -4.8125 Z M 5.140625 -7.78125 "/></g></g></g><g fill="#413f3d" fill-opacity="1"><g transform="translate(156.620045, 202.499987)"><g><path d="M 3.078125 -6.390625 L 3.328125 -2.453125 C 3.335938 -2.222656 3.363281 -2.070312 3.40625 -2 C 3.445312 -1.9375 3.535156 -1.863281 3.671875 -1.78125 L 4.453125 -1.265625 L 4.390625 0 L 0.5 0 L 0.421875 -1.640625 L 1.234375 -1.828125 L 1.296875 -7.734375 C 1.296875 -7.929688 1.28125 -8.0625 1.25 -8.125 C 1.21875 -8.195312 1.144531 -8.28125 1.03125 -8.375 L 0.484375 -8.796875 L 0.578125 -10.109375 L 3.6875 -10.109375 L 8.21875 -4.3125 L 8.015625 -7.65625 C 8.003906 -7.894531 7.976562 -8.046875 7.9375 -8.109375 C 7.894531 -8.179688 7.804688 -8.257812 7.671875 -8.34375 L 6.890625 -8.84375 L 6.9375 -10.109375 L 10.796875 -10.109375 L 10.859375 -8.578125 L 10.09375 -8.25 L 10.03125 -0.140625 L 8.3125 0.4375 Z M 3.078125 -6.390625 "/></g></g></g><g fill="#413f3d" fill-opacity="1"><g transform="translate(167.840038, 202.499987)"><g><path d="M 0.234375 -1.328125 L 0.703125 -1.625 L 4.21875 -10.125 L 6.765625 -10.34375 L 9.765625 -2.25 C 9.867188 -1.988281 9.9375 -1.816406 9.96875 -1.734375 C 10.007812 -1.660156 10.085938 -1.550781 10.203125 -1.40625 L 10.46875 -1.0625 L 10.375 0 L 6.171875 0 L 6.015625 -1.421875 L 7.078125 -1.6875 L 6.59375 -3.203125 L 3.5625 -3.171875 L 3.21875 -2.21875 C 3.195312 -2.125 3.1875 -2.050781 3.1875 -2 C 3.1875 -1.925781 3.195312 -1.867188 3.21875 -1.828125 C 3.238281 -1.796875 3.28125 -1.769531 3.34375 -1.75 L 4.375 -1.3125 L 4.234375 0 L 0.296875 0 Z M 5.140625 -7.78125 L 4.15625 -4.90625 L 6.09375 -4.8125 Z M 5.140625 -7.78125 "/></g></g></g><g fill="#413f3d" fill-opacity="1"><g transform="translate(178.52003, 202.499987)"><g><path d="M 5.453125 0.1875 C 3.765625 0.1875 2.492188 -0.253906 1.640625 -1.140625 C 0.796875 -2.035156 0.375 -3.359375 0.375 -5.109375 C 0.375 -6.179688 0.578125 -7.101562 0.984375 -7.875 C 1.398438 -8.65625 1.992188 -9.25 2.765625 -9.65625 C 3.546875 -10.070312 4.472656 -10.28125 5.546875 -10.28125 C 6.847656 -10.28125 8.113281 -10.019531 9.34375 -9.5 C 9.238281 -8.539062 9.097656 -7.578125 8.921875 -6.609375 L 7.78125 -6.546875 L 6.84375 -7.921875 C 6.34375 -8.097656 5.722656 -8.1875 4.984375 -8.1875 C 4.628906 -8.1875 4.207031 -8.148438 3.71875 -8.078125 C 3.539062 -7.785156 3.398438 -7.390625 3.296875 -6.890625 C 3.203125 -6.390625 3.15625 -5.847656 3.15625 -5.265625 C 3.15625 -4.117188 3.382812 -3.257812 3.84375 -2.6875 C 4.300781 -2.125 5.015625 -1.835938 5.984375 -1.828125 C 6.222656 -1.828125 6.53125 -1.847656 6.90625 -1.890625 L 6.90625 -2.984375 C 6.90625 -3.179688 6.890625 -3.3125 6.859375 -3.375 C 6.828125 -3.4375 6.738281 -3.503906 6.59375 -3.578125 L 6.03125 -3.875 L 6.09375 -4.890625 L 6.4375 -4.953125 C 6.539062 -4.972656 6.925781 -5.035156 7.59375 -5.140625 C 8.269531 -5.242188 8.832031 -5.304688 9.28125 -5.328125 C 9.382812 -5.140625 9.460938 -4.925781 9.515625 -4.6875 L 9.515625 -0.75 C 8.929688 -0.457031 8.285156 -0.226562 7.578125 -0.0625 C 6.867188 0.101562 6.160156 0.1875 5.453125 0.1875 Z M 5.453125 0.1875 "/></g></g></g><g fill="#413f3d" fill-opacity="1"><g transform="translate(188.660021, 202.499987)"><g><path d="M 0.40625 -1.53125 L 1.5 -1.828125 L 1.5 -7.578125 C 1.5 -7.835938 1.476562 -8.007812 1.4375 -8.09375 C 1.394531 -8.175781 1.289062 -8.253906 1.125 -8.328125 L 0.375 -8.765625 L 0.421875 -10.109375 L 8.5625 -10.109375 C 8.632812 -9.054688 8.671875 -8.03125 8.671875 -7.03125 L 7.5625 -6.953125 L 6.5 -8.28125 L 4.234375 -8.34375 L 4.234375 -5.890625 L 7.421875 -6.171875 L 7.421875 -3.859375 L 4.234375 -4.203125 L 4.234375 -1.78125 L 6.71875 -1.828125 L 7.875 -3.15625 L 8.984375 -3.078125 C 8.941406 -2.023438 8.867188 -1 8.765625 0 L 0.484375 0 Z M 0.40625 -1.53125 "/></g></g></g><g fill="#413f3d" fill-opacity="1"><g transform="translate(198.005014, 202.499987)"><g><path d="M 3.421875 -6.625 L 3.09375 -2.1875 L 3.09375 -2.125 C 3.09375 -1.9375 3.160156 -1.8125 3.296875 -1.75 L 4.234375 -1.359375 L 4.078125 0 L 0.34375 0 L 0.1875 -1.328125 L 0.890625 -1.75 L 1.734375 -7.546875 C 1.742188 -7.617188 1.75 -7.703125 1.75 -7.796875 C 1.75 -7.921875 1.722656 -8.007812 1.671875 -8.0625 C 1.617188 -8.125 1.515625 -8.203125 1.359375 -8.296875 L 0.671875 -8.6875 L 0.765625 -10.109375 L 5.0625 -10.109375 L 7.21875 -3.125 L 9.34375 -10.109375 L 13.359375 -10.109375 L 13.421875 -8.53125 L 12.46875 -8.296875 L 13.28125 -2.421875 C 13.300781 -2.210938 13.335938 -2.050781 13.390625 -1.9375 C 13.453125 -1.832031 13.582031 -1.65625 13.78125 -1.40625 L 14.09375 -1 L 14.015625 0 L 9.546875 0 L 9.40625 -1.375 L 10.640625 -1.6875 L 10.125 -6.71875 L 8.203125 0.0625 L 5.640625 0.28125 Z M 3.421875 -6.625 "/></g></g></g><g fill="#413f3d" fill-opacity="1"><g transform="translate(212.284997, 202.499987)"><g><path d="M 0.40625 -1.53125 L 1.5 -1.828125 L 1.5 -7.578125 C 1.5 -7.835938 1.476562 -8.007812 1.4375 -8.09375 C 1.394531 -8.175781 1.289062 -8.253906 1.125 -8.328125 L 0.375 -8.765625 L 0.421875 -10.109375 L 8.5625 -10.109375 C 8.632812 -9.054688 8.671875 -8.03125 8.671875 -7.03125 L 7.5625 -6.953125 L 6.5 -8.28125 L 4.234375 -8.34375 L 4.234375 -5.890625 L 7.421875 -6.171875 L 7.421875 -3.859375 L 4.234375 -4.203125 L 4.234375 -1.78125 L 6.71875 -1.828125 L 7.875 -3.15625 L 8.984375 -3.078125 C 8.941406 -2.023438 8.867188 -1 8.765625 0 L 0.484375 0 Z M 0.40625 -1.53125 "/></g></g></g><g fill="#413f3d" fill-opacity="1"><g transform="translate(221.62999, 202.499987)"><g><path d="M 3.078125 -6.390625 L 3.328125 -2.453125 C 3.335938 -2.222656 3.363281 -2.070312 3.40625 -2 C 3.445312 -1.9375 3.535156 -1.863281 3.671875 -1.78125 L 4.453125 -1.265625 L 4.390625 0 L 0.5 0 L 0.421875 -1.640625 L 1.234375 -1.828125 L 1.296875 -7.734375 C 1.296875 -7.929688 1.28125 -8.0625 1.25 -8.125 C 1.21875 -8.195312 1.144531 -8.28125 1.03125 -8.375 L 0.484375 -8.796875 L 0.578125 -10.109375 L 3.6875 -10.109375 L 8.21875 -4.3125 L 8.015625 -7.65625 C 8.003906 -7.894531 7.976562 -8.046875 7.9375 -8.109375 C 7.894531 -8.179688 7.804688 -8.257812 7.671875 -8.34375 L 6.890625 -8.84375 L 6.9375 -10.109375 L 10.796875 -10.109375 L 10.859375 -8.578125 L 10.09375 -8.25 L 10.03125 -0.140625 L 8.3125 0.4375 Z M 3.078125 -6.390625 "/></g></g></g><g fill="#413f3d" fill-opacity="1"><g transform="translate(232.849983, 202.499987)"><g><path d="M 2.578125 -1.46875 L 3.890625 -1.828125 L 3.890625 -8.328125 L 2.625 -8.21875 L 1.515625 -6.890625 L 0.421875 -6.96875 C 0.421875 -7.800781 0.460938 -8.847656 0.546875 -10.109375 L 9.9375 -10.109375 C 10.007812 -8.847656 10.046875 -7.800781 10.046875 -6.96875 L 8.96875 -6.890625 L 7.84375 -8.21875 L 6.609375 -8.328125 L 6.609375 -2.4375 C 6.609375 -2.1875 6.625 -2.023438 6.65625 -1.953125 C 6.6875 -1.890625 6.773438 -1.820312 6.921875 -1.75 L 7.84375 -1.203125 L 7.78125 0 L 2.65625 0 Z M 2.578125 -1.46875 "/></g></g></g></svg>